<?xml version="1.0" encoding="utf-8"?>
<!-- Generator: Adobe Illustrator 23.0.6, SVG Export Plug-In . SVG Version: 6.00 Build 0)  -->
<svg version="1.1" id="Layer_1" xmlns="http://www.w3.org/2000/svg" xmlns:xlink="http://www.w3.org/1999/xlink" x="0px" y="0px"
	 viewBox="0 0 24 24" style="enable-background:new 0 0 24 24;" xml:space="preserve">
<style type="text/css">
	.st0{fill:#B9B9B9;}
	.st1{fill:#FFFFFF;}
</style>
<path class="st0" d="M18,24H6c-3.3,0-6-2.7-6-6V6c0-3.3,2.7-6,6-6h12c3.3,0,6,2.7,6,6v12C24,21.3,21.3,24,18,24z"/>
<path class="st1" d="M19.8,7.5C19.3,7,18.5,7,18,7.5l-7.7,7.8L6.2,9.7C5.9,9.1,5.1,8.9,4.4,9.3C3.8,9.7,3.7,10.5,4.1,11l5,6.8
	c0.2,0.3,0.6,0.5,0.9,0.5h0.1c0.3,0,0.6-0.1,0.9-0.4l8.8-8.8C20,9,20.1,8.7,20.1,8.4C20.1,8,20,7.7,19.8,7.5z"/>
</svg>
