<?xml version="1.0" encoding="utf-8"?>
<!-- Generator: Adobe Illustrator 22.1.0, SVG Export Plug-In . SVG Version: 6.00 Build 0)  -->
<svg version="1.1" id="Layer_1" xmlns="http://www.w3.org/2000/svg" xmlns:xlink="http://www.w3.org/1999/xlink" x="0px" y="0px"
	 viewBox="0 0 145 49" enable-background="new 0 0 145 49" xml:space="preserve">
<g>
	<g>
		<path fill="none" d="M33.6,28.3c2.4,0,3.2,1,3.2,2.9h5.3c0-4.6-3.2-6.4-8.6-6.4c-5.4,0-8.8,2.2-8.8,6.8v3.8c0,4.7,3.3,6.7,8.7,6.7
			c5.4,0,8.7-1.8,8.7-6.4h-5.3c0,2-0.9,2.9-3.4,2.9s-3.1-1.2-3.1-3.3v-3.7C30.3,29.5,31,28.3,33.6,28.3z"/>
		<path fill="none" d="M19.3,24.8c-1.4,0-2.6,1.2-2.6,2.6c0,1.4,1.2,2.6,2.6,2.6c1.4,0,2.6-1.2,2.6-2.6C21.8,26,20.7,24.8,19.3,24.8
			z"/>
		<path fill="none" d="M19.3,30.9c-1.4,0-2.6,1.2-2.6,2.6c0,1.4,1.2,2.6,2.6,2.6c1.4,0,2.6-1.2,2.6-2.6
			C21.8,32.1,20.7,30.9,19.3,30.9z"/>
		<path fill="none" d="M19.3,37c-1.4,0-2.6,1.2-2.6,2.6c0,1.4,1.2,2.6,2.6,2.6c1.4,0,2.6-1.2,2.6-2.6C21.8,38.2,20.7,37,19.3,37z"/>
		<path fill="none" d="M71.5,24.8c-5.4,0-8.7,2.4-8.7,6.7v3.9c0,4.6,3.3,6.7,8.7,6.7c5.4,0,8.7-1.7,8.7-5.3h-5.4
			c0,1.2-0.9,1.9-3.2,1.9c-1.9,0-3.2-0.5-3.2-3.3v-0.4h11.8v-3.4C80.2,26.9,76.8,24.8,71.5,24.8z M68.3,31.6c0-2.1,0.5-3.4,3.3-3.4
			c2.7,0,3.2,1.2,3.2,3.4H68.3z"/>
		<g>
			<path fill="#8FC741" d="M90.7,35.2c0,1.7,0.3,3.3,3.7,3.3h1.1v-3.8v-5.6v-0.7h-4.8V35.2z"/>
			<path fill="#8FC741" d="M21,12.8c0.5,0.5,0.8,1.1,0.8,1.9c0,1.4-1.2,2.6-2.6,2.6c-1.4,0-2.6-1.2-2.6-2.6c0-0.7,0.3-1.4,0.8-1.9
				H6.3c-3.5,0-6.3,2.8-6.3,6.3v5.7h3.6h1.2v-5.2h5.5v4.5v0.7h3.5v3.6h-3.5v7.3c0,1.9,0.3,3.1,3.5,2.8v0.2v3.2c-6,0.5-9-1.2-9-6.2
				v-7.4H0V49h89.1c3.5,0,6.3-2.8,6.3-6.3v0v0v-0.5h-2c-5.8,0-8.2-2.4-8.2-6.9v-6.8h-3.6v-3.6h3.6v-5.2h5.5v5.2h4.8v-12H21z
				 M19.3,42.1c-1.4,0-2.6-1.2-2.6-2.6c0-1.4,1.2-2.6,2.6-2.6c1.4,0,2.6,1.2,2.6,2.6C21.8,41,20.7,42.1,19.3,42.1z M19.3,36.1
				c-1.4,0-2.6-1.2-2.6-2.6c0-1.4,1.2-2.6,2.6-2.6c1.4,0,2.6,1.2,2.6,2.6C21.8,34.9,20.7,36.1,19.3,36.1z M19.3,30
				c-1.4,0-2.6-1.2-2.6-2.6c0-1.4,1.2-2.6,2.6-2.6c1.4,0,2.6,1.2,2.6,2.6C21.8,28.8,20.7,30,19.3,30z M33.4,38.6
				c2.5,0,3.4-0.9,3.4-2.9h5.3c0,4.6-3.3,6.4-8.7,6.4c-5.4,0-8.7-2-8.7-6.7v-3.8c0-4.6,3.5-6.8,8.8-6.8c5.4,0,8.6,1.8,8.6,6.4h-5.3
				c0-1.9-0.8-2.9-3.2-2.9c-2.6,0-3.4,1.2-3.4,3.3v3.7C30.3,37.4,30.9,38.6,33.4,38.6z M56.9,42.1L51,34.5h-0.6v7.7H45V19.6h5.5
				v11.3H51l5.1-6.1h5.3l-6.6,7.7l7.4,9.7H56.9z M80.2,34.9H68.3v0.4c0,2.8,1.3,3.3,3.2,3.3c2.2,0,3.2-0.7,3.2-1.9h5.4
				c0,3.6-3.3,5.3-8.7,5.3c-5.4,0-8.7-2.1-8.7-6.7v-3.9c0-4.3,3.3-6.7,8.7-6.7c5.4,0,8.7,2.1,8.7,6.7V34.9z"/>
			<path fill="#8FC741" d="M71.6,28.3c-2.8,0-3.3,1.3-3.3,3.4h6.5C74.8,29.5,74.3,28.3,71.6,28.3z"/>
		</g>
		<path fill="#7AA3D6" d="M119.8,35.1c-4.8-0.4-6.5,0.5-6.5,1.9c0,1.1,1.2,1.5,2.8,1.5c3.2,0,3.7-0.9,3.7-2.1V35.1z M114.6,42.1
			c-3.4,0-6.7-1.6-6.7-4.8c0-4,4.8-5.6,11.8-5.2c0-2.5-0.6-3.8-3.1-3.8c-2.1,0-2.8,0.6-2.8,2.4h-5.3c-0.3-4.2,3.2-5.9,8.1-5.9
			c5.3,0,8.4,2.2,8.4,6.6v1.7v2.6c0,5.2-3.9,6.3-7.1,6.3H114.6z"/>
		<path fill="#7AA3D6" d="M95.6,42.1L95.6,42.1c5.1-0.1,9-2.2,9-6.7v-2.1v-0.4v-1.4c0-4.5-4-6.6-9-6.7v0c-0.1,0-0.1,0-0.2,0v3.6
			c2.3,0.1,3.7,1.3,3.7,3.3v1.1v0.4v1.8c0,2-1.4,3.3-3.7,3.3v3.6L95.6,42.1z"/>
		<g>
			<polygon fill="#7AA3D6" points="145,24.8 139.6,24.8 135.9,35.7 132.1,24.8 127.5,24.8 133.6,42.4 131.3,49 136.6,49 			"/>
		</g>
	</g>
</g>
<g>
	<path fill="#555658" d="M4.6,5.9v2c0,0.1,0,0.3,0,0.5c0,0.2,0,0.3,0,0.5H3.5c0-0.2,0-0.3,0-0.5c0-0.2,0-0.3,0-0.5v-2H1.5
		c-0.3,0-0.5,0-0.8,0c-0.2,0-0.5,0-0.8,0v-1c0.3,0,0.5,0,0.8,0c0.2,0,0.5,0,0.8,0h5.2c0.3,0,0.5,0,0.8,0c0.2,0,0.5,0,0.8,0v1
		c-0.3,0-0.5,0-0.8,0c-0.2,0-0.5,0-0.8,0H4.6z M4.1,4.2c-0.5,0-1-0.1-1.4-0.2C2.3,3.9,2,3.8,1.7,3.6C1.4,3.4,1.2,3.2,1.1,2.9
		C0.9,2.7,0.8,2.4,0.8,2.1c0-0.3,0.1-0.5,0.2-0.8c0.1-0.3,0.4-0.5,0.6-0.7c0.3-0.2,0.6-0.3,1-0.4c0.4-0.1,0.9-0.2,1.4-0.2
		c0.5,0,1,0.1,1.4,0.2c0.4,0.1,0.7,0.3,1,0.4C6.7,0.9,7,1.1,7.1,1.3c0.1,0.2,0.2,0.5,0.2,0.8c0,0.3-0.1,0.6-0.2,0.8
		C7,3.2,6.7,3.4,6.5,3.6C6.2,3.8,5.8,3.9,5.4,4C5,4.1,4.6,4.2,4.1,4.2z M2,2.1c0,0.3,0.2,0.6,0.6,0.8C3,3.1,3.5,3.2,4.1,3.2
		c0.6,0,1.1-0.1,1.5-0.3C6,2.8,6.2,2.5,6.2,2.1c0-0.3-0.2-0.6-0.6-0.8C5.2,1.1,4.7,1,4.1,1C3.5,1,2.9,1.1,2.6,1.3
		C2.2,1.5,2,1.8,2,2.1z"/>
	<path fill="#555658" d="M12.5,1.4h-2.2c-0.2,0-0.3,0-0.4,0c-0.1,0-0.3,0-0.4,0v-1c0.2,0,0.3,0,0.4,0c0.1,0,0.3,0,0.4,0h3.3
		c0,0.2,0,0.3,0,0.4c0,0.1,0,0.3,0,0.4V4h-3v1.8H12c0.2,0,0.4,0,0.6,0c0.2,0,0.5,0,0.7-0.1c0.2,0,0.5-0.1,0.7-0.1
		c0.2,0,0.4-0.1,0.6-0.1v0.9c-0.2,0-0.4,0.1-0.6,0.1c-0.2,0-0.5,0.1-0.8,0.1c-0.3,0-0.6,0-0.9,0.1s-0.6,0-0.9,0l-2.1,0V3.1h3V1.4z
		 M16.2,7.5c0,0.2,0,0.4,0,0.7c0,0.2,0,0.4,0,0.7h-1.1c0-0.2,0-0.4,0-0.7c0-0.2,0-0.4,0-0.7V1.3c0-0.2,0-0.4,0-0.7
		c0-0.2,0-0.4,0-0.7h1.1c0,0.2,0,0.4,0,0.7c0,0.2,0,0.4,0,0.7V7.5z"/>
	<path fill="#555658" d="M18.9,1.5c-0.2,0-0.3,0-0.4,0c-0.1,0-0.3,0-0.4,0v-1c0.2,0,0.3,0,0.4,0c0.1,0,0.3,0,0.4,0h3.3
		c0,0.6-0.1,1.3-0.2,1.8c-0.1,0.6-0.4,1.2-0.6,1.7c-0.3,0.6-0.7,1.2-1.2,1.7c-0.5,0.5-1,1-1.7,1.4c-0.1-0.1-0.2-0.2-0.4-0.4
		c-0.2-0.1-0.3-0.3-0.5-0.3c0.6-0.3,1.1-0.7,1.5-1.1c0.4-0.4,0.8-0.8,1.1-1.3c0.2-0.4,0.4-0.8,0.6-1.2C20.9,2.4,21,1.9,21,1.5H18.9z
		 M24.6,3.5h0.5c0.1,0,0.2,0,0.4,0c0.1,0,0.3,0,0.4,0v1c-0.1,0-0.2,0-0.4,0c-0.1,0-0.2,0-0.4,0h-0.5v3c0,0.2,0,0.4,0,0.7
		c0,0.2,0,0.4,0,0.6h-1.1c0-0.2,0-0.4,0-0.6c0-0.2,0-0.4,0-0.7V1.3c0-0.2,0-0.4,0-0.6c0-0.2,0-0.4,0-0.6h1.1c0,0.2,0,0.4,0,0.6
		c0,0.2,0,0.4,0,0.6V3.5z"/>
	<path fill="#555658" d="M33.4,4.6h-4.2V1.3c0-0.2,0-0.3,0-0.5c0-0.2,0-0.3,0-0.5h4.3c0,0.2,0,0.4,0,0.5c0,0.2,0,0.3,0,0.5V4.6z
		 M30.1,8.6V6.4c0-0.1,0-0.2,0-0.4c0-0.1,0-0.3,0-0.4h1.2c0,0.1,0,0.2,0,0.4c0,0.1,0,0.2,0,0.4v1.3H35c0.2,0,0.3,0,0.5,0
		c0.2,0,0.4,0,0.6,0v1c-0.2,0-0.4,0-0.6,0c-0.2,0-0.4,0-0.5,0H30.1z M32.3,3.7V1.3h-2.1v2.4H32.3z M35.9,2.2h0.4c0.1,0,0.2,0,0.4,0
		c0.1,0,0.3,0,0.4,0v1c-0.1,0-0.2,0-0.4,0c-0.1,0-0.2,0-0.4,0h-0.4v2.2c0,0.2,0,0.3,0,0.5c0,0.2,0,0.3,0,0.5h-1.1c0-0.2,0-0.3,0-0.5
		c0-0.2,0-0.3,0-0.5V1c0-0.2,0-0.3,0-0.5c0-0.2,0-0.3,0-0.5h1.1c0,0.2,0,0.3,0,0.5c0,0.2,0,0.3,0,0.5V2.2z"/>
	<path fill="#555658" d="M44.1,7.7h-5.2c-0.3,0-0.5,0-0.8,0c-0.2,0-0.5,0-0.8,0v-1c0.3,0,0.5,0,0.8,0c0.2,0,0.5,0,0.8,0h5.2
		c0.3,0,0.5,0,0.8,0c0.2,0,0.5,0,0.8,0v1c-0.3,0-0.5,0-0.8,0C44.6,7.7,44.4,7.7,44.1,7.7z M43.6,4.9h-5.1V1.4c0-0.2,0-0.3,0-0.5
		c0-0.2,0-0.3,0-0.5h5.1c0.2,0,0.3,0,0.5,0c0.2,0,0.4,0,0.6,0v1c-0.2,0-0.4,0-0.6,0c-0.2,0-0.4,0-0.5,0h-4v2.6h4.1
		c0.2,0,0.3,0,0.5,0c0.2,0,0.4,0,0.6,0v1c-0.2,0-0.4,0-0.6,0C43.9,4.9,43.7,4.9,43.6,4.9z"/>
	<path fill="#555658" d="M52.8,5.1h-5.2c-0.3,0-0.5,0-0.8,0c-0.2,0-0.5,0-0.8,0v-1c0.3,0,0.5,0,0.8,0c0.2,0,0.5,0,0.8,0h5.2
		c0.3,0,0.5,0,0.8,0c0.2,0,0.5,0,0.8,0v1c-0.3,0-0.5,0-0.8,0C53.3,5.2,53.1,5.1,52.8,5.1z M47.2,3.1V0.8c0-0.1,0-0.2,0-0.4
		c0-0.1,0-0.3,0-0.4h1.2c0,0.1,0,0.2,0,0.4c0,0.1,0,0.2,0,0.4v1.5h4c0.2,0,0.3,0,0.5,0c0.2,0,0.4,0,0.6,0v1c-0.2,0-0.4,0-0.6,0
		c-0.2,0-0.4,0-0.5,0H47.2z M47.2,8.6v-2c0-0.1,0-0.2,0-0.4c0-0.1,0-0.3,0-0.4h1.2c0,0.1,0,0.2,0,0.4c0,0.1,0,0.2,0,0.4v1.1h4.2
		c0.2,0,0.3,0,0.5,0c0.2,0,0.4,0,0.6,0v1c-0.2,0-0.4,0-0.6,0c-0.2,0-0.4,0-0.5,0H47.2z"/>
	<path fill="#88BD56" d="M61.4,1.5h-2.2V3h3v1.1h-3v1.6c0.2,0,0.3,0,0.4,0c0.1,0,0.3,0,0.4,0c0.1,0,0.3,0,0.5,0c0.2,0,0.4,0,0.6,0
		c0.2,0,0.3,0,0.5,0c0.2,0,0.4,0,0.6,0c0.2,0,0.3,0,0.5-0.1c0.2,0,0.3,0,0.4-0.1v1.1c-0.1,0-0.3,0-0.4,0.1c-0.2,0-0.3,0-0.5,0.1
		c-0.2,0-0.3,0-0.5,0c-0.2,0-0.4,0-0.6,0c-0.3,0-0.7,0-1.2,0c-0.5,0-1.1,0-1.9,0V1.5c0-0.2,0-0.3,0-0.5c0-0.2,0-0.3,0-0.5h3.5
		c0.2,0,0.3,0,0.5,0c0.2,0,0.3,0,0.5,0v1.1c-0.1,0-0.2,0-0.2,0c-0.1,0-0.2,0-0.2,0c-0.1,0-0.2,0-0.2,0C61.6,1.5,61.5,1.5,61.4,1.5z
		 M64.8,7.5c0,0.2,0,0.4,0,0.7c0,0.2,0,0.4,0,0.7h-1.3c0-0.2,0-0.4,0-0.7c0-0.2,0-0.4,0-0.7V1.3c0-0.2,0-0.4,0-0.7
		c0-0.2,0-0.4,0-0.7h1.3c0,0.2,0,0.4,0,0.7c0,0.2,0,0.4,0,0.7V7.5z"/>
	<path fill="#88BD56" d="M70.9,3.2h-0.4c-0.1,0-0.2,0-0.3,0c-0.1,0-0.2,0-0.3,0V2.5c-0.1,0.1-0.1,0.3-0.2,0.4
		c-0.1,0.1-0.1,0.2-0.2,0.4c-0.3,0.5-0.6,0.9-1,1.3C68,4.9,67.5,5.2,67,5.4c-0.1-0.1-0.3-0.3-0.4-0.4c-0.2-0.2-0.3-0.3-0.4-0.4
		c0.2-0.1,0.4-0.2,0.6-0.3c0.2-0.1,0.4-0.2,0.6-0.4c0.2-0.1,0.3-0.3,0.5-0.4c0.1-0.1,0.2-0.3,0.3-0.4c-0.1,0-0.2,0-0.4,0
		c-0.2,0-0.3,0-0.5,0c-0.2,0-0.3,0-0.5,0c-0.1,0-0.2,0-0.3,0V2.3c0,0,0.1,0,0.3,0c0.2,0,0.4,0,0.6,0c0.2,0,0.5,0,0.7,0
		c0.2,0,0.4,0,0.5,0c0-0.1,0-0.1,0.1-0.2c0-0.1,0-0.2,0-0.2c0-0.1,0-0.1,0-0.2c0-0.1,0-0.1,0-0.2h-1.2c-0.2,0-0.3,0-0.4,0
		c-0.1,0-0.3,0-0.4,0V0.3c0.2,0,0.3,0,0.4,0c0.1,0,0.3,0,0.4,0h2.6c0,0.3,0,0.6-0.1,0.9c0,0.3-0.1,0.6-0.2,0.9c0.1,0,0.2,0,0.3,0
		c0.1,0,0.2,0,0.3,0h0.4V1.3c0-0.2,0-0.4,0-0.6c0-0.2,0-0.4,0-0.6H72c0,0.2,0,0.4,0,0.6s0,0.4,0,0.6v2.4c0,0.2,0,0.4,0,0.6
		s0,0.4,0,0.6h-1.2c0-0.2,0-0.4,0-0.6c0-0.2,0-0.4,0-0.6V3.2z M71.2,5.5c0,0.3,0.1,0.7,0.3,0.9c0.2,0.3,0.4,0.5,0.7,0.8
		c0.3,0.2,0.6,0.4,0.9,0.5c0.3,0.1,0.7,0.2,1,0.3c-0.1,0.1-0.3,0.3-0.4,0.4c-0.1,0.2-0.2,0.3-0.3,0.4c-0.2,0-0.5-0.1-0.8-0.3
		c-0.3-0.1-0.6-0.3-0.8-0.4c-0.3-0.2-0.5-0.4-0.7-0.6c-0.2-0.2-0.4-0.4-0.5-0.7c-0.1,0.2-0.3,0.5-0.5,0.7c-0.2,0.2-0.5,0.4-0.8,0.6
		c-0.2,0.2-0.5,0.3-0.7,0.4c-0.2,0.1-0.5,0.2-0.7,0.3c-0.1-0.1-0.2-0.3-0.3-0.4c-0.1-0.2-0.3-0.3-0.4-0.5c0.4-0.1,0.7-0.2,1-0.3
		c0.3-0.1,0.6-0.3,0.9-0.5c0.2-0.2,0.4-0.4,0.6-0.7c0.2-0.3,0.2-0.6,0.2-0.9V5.4c0,0,0-0.1,0-0.1c0,0,0-0.1,0-0.1h1.5
		c0,0,0,0.1,0,0.1C71.2,5.3,71.2,5.3,71.2,5.5L71.2,5.5z M73.8,4.6c0,0.2,0,0.4,0,0.6c0,0.2,0,0.4,0,0.6h-1.3c0-0.2,0-0.4,0-0.6
		c0-0.2,0-0.4,0-0.6V1.2c0-0.2,0-0.4,0-0.6c0-0.2,0-0.4,0-0.6h1.2c0,0.2,0,0.4,0,0.6c0,0.2,0,0.4,0,0.6V4.6z"/>
	<path fill="#719ACA" d="M79.6,6.7h-4.2V1.6c0-0.2,0-0.3,0-0.5c0-0.2,0-0.3,0-0.5h4.3c0,0.2,0,0.4,0,0.5c0,0.2,0,0.3,0,0.5V6.7z
		 M78.4,5.7V1.6h-1.8v4.1H78.4z M82,3.2h0.4c0.1,0,0.2,0,0.4,0c0.1,0,0.3,0,0.4,0v1.2c-0.1,0-0.2,0-0.4,0c-0.1,0-0.3,0-0.4,0H82v3.1
		c0,0.2,0,0.4,0,0.7c0,0.2,0,0.4,0,0.7h-1.3c0-0.2,0-0.4,0-0.7c0-0.2,0-0.4,0-0.7V1.3c0-0.2,0-0.4,0-0.7c0-0.2,0-0.4,0-0.7h1.3
		c0,0.2,0,0.4,0,0.7c0,0.2,0,0.4,0,0.7V3.2z"/>
	<path fill="#719ACA" d="M88.3,3.2h-0.4c-0.1,0-0.2,0-0.3,0c-0.1,0-0.2,0-0.3,0V2.5c-0.1,0.1-0.1,0.3-0.2,0.4
		C87,3,86.9,3.1,86.9,3.2c-0.3,0.5-0.6,0.9-1,1.3c-0.4,0.4-0.8,0.7-1.3,0.9c-0.1-0.1-0.3-0.3-0.4-0.4c-0.2-0.2-0.3-0.3-0.4-0.4
		c0.2-0.1,0.4-0.2,0.6-0.3c0.2-0.1,0.4-0.2,0.6-0.4c0.2-0.1,0.3-0.3,0.5-0.4c0.1-0.1,0.2-0.3,0.3-0.4c-0.1,0-0.2,0-0.4,0
		c-0.2,0-0.3,0-0.5,0c-0.2,0-0.3,0-0.5,0c-0.1,0-0.2,0-0.3,0V2.3c0,0,0.1,0,0.3,0c0.2,0,0.4,0,0.6,0c0.2,0,0.5,0,0.7,0
		c0.2,0,0.4,0,0.5,0c0-0.1,0-0.1,0.1-0.2c0-0.1,0-0.2,0-0.2c0-0.1,0-0.1,0-0.2c0-0.1,0-0.1,0-0.2h-1.2c-0.2,0-0.3,0-0.4,0
		c-0.1,0-0.3,0-0.4,0V0.3c0.2,0,0.3,0,0.4,0c0.1,0,0.3,0,0.4,0h2.6c0,0.3,0,0.6-0.1,0.9c0,0.3-0.1,0.6-0.2,0.9c0.1,0,0.2,0,0.3,0
		c0.1,0,0.2,0,0.3,0h0.4V1.3c0-0.2,0-0.4,0-0.6c0-0.2,0-0.4,0-0.6h1.2c0,0.2,0,0.4,0,0.6s0,0.4,0,0.6v2.4c0,0.2,0,0.4,0,0.6
		s0,0.4,0,0.6h-1.2c0-0.2,0-0.4,0-0.6c0-0.2,0-0.4,0-0.6V3.2z M88.7,5.5c0,0.3,0.1,0.7,0.3,0.9c0.2,0.3,0.4,0.5,0.7,0.8
		c0.3,0.2,0.6,0.4,0.9,0.5c0.3,0.1,0.7,0.2,1,0.3c-0.1,0.1-0.3,0.3-0.4,0.4c-0.1,0.2-0.2,0.3-0.3,0.4c-0.2,0-0.5-0.1-0.8-0.3
		c-0.3-0.1-0.6-0.3-0.8-0.4C89,8,88.7,7.8,88.5,7.6c-0.2-0.2-0.4-0.4-0.5-0.7c-0.1,0.2-0.3,0.5-0.5,0.7C87.2,7.8,87,8,86.7,8.2
		c-0.2,0.2-0.5,0.3-0.7,0.4c-0.2,0.1-0.5,0.2-0.7,0.3c-0.1-0.1-0.2-0.3-0.3-0.4c-0.1-0.2-0.3-0.3-0.4-0.5c0.4-0.1,0.7-0.2,1-0.3
		c0.3-0.1,0.6-0.3,0.9-0.5c0.2-0.2,0.4-0.4,0.6-0.7c0.2-0.3,0.2-0.6,0.2-0.9V5.4c0,0,0-0.1,0-0.1c0,0,0-0.1,0-0.1h1.5
		c0,0,0,0.1,0,0.1C88.7,5.3,88.7,5.3,88.7,5.5L88.7,5.5z M91.3,4.6c0,0.2,0,0.4,0,0.6c0,0.2,0,0.4,0,0.6H90c0-0.2,0-0.4,0-0.6
		c0-0.2,0-0.4,0-0.6V1.2c0-0.2,0-0.4,0-0.6c0-0.2,0-0.4,0-0.6h1.2c0,0.2,0,0.4,0,0.6c0,0.2,0,0.4,0,0.6V4.6z"/>
</g>
</svg>
