<?xml version="1.0" encoding="utf-8"?>
<!-- Generator: Adobe Illustrator 22.1.0, SVG Export Plug-In . SVG Version: 6.00 Build 0)  -->
<svg version="1.1" id="Layer_1" xmlns="http://www.w3.org/2000/svg" xmlns:xlink="http://www.w3.org/1999/xlink" x="0px" y="0px"
	 viewBox="0 0 24 24" style="enable-background:new 0 0 24 24;" xml:space="preserve">
<style type="text/css">
	.st0{fill:#B9B9B9;}
</style>
<g>
	<path class="st0" d="M12,2c5.5,0,10,4.5,10,10s-4.5,10-10,10S2,17.5,2,12S6.5,2,12,2 M12,0C5.4,0,0,5.4,0,12s5.4,12,12,12
		s12-5.4,12-12S18.6,0,12,0L12,0z"/>
</g>
<g>
	<g>
		<path class="st0" d="M12.4,4.6c0,0-0.1,0-0.1,0c-1.3,0-3.1,0.3-4,1.4C7.7,6.7,8.2,7.9,9.1,7.9c0,0,0,0,0,0c0.5,0,1-0.5,1.4-0.6
			c0.5-0.2,1.3-0.4,2-0.4c0.8,0,1.5,0.3,1.7,1.1c0.3,1.1-0.8,2-1.5,2.6c-1.2,1-2,2.1-2,3.7c0,0.7,0.6,1.1,1.2,1.1
			c0.4,0,0.8-0.2,1-0.5c0.3-0.4,0.1-1,0.3-1.5c0.5-0.9,1.6-1.6,2.3-2.3c1.2-1.2,1.5-2.8,0.9-4.3C16,5.3,14,4.6,12.4,4.6L12.4,4.6z"
			/>
	</g>
</g>
<g>
	<path class="st0" d="M12.2,17c-0.8,0-1.4,0.6-1.4,1.4s0.6,1.4,1.4,1.4s1.4-0.6,1.4-1.4S13,17,12.2,17L12.2,17z"/>
</g>
</svg>
