<?xml version="1.0" encoding="utf-8"?>
<!-- Generator: Adobe Illustrator 23.0.1, SVG Export Plug-In . SVG Version: 6.00 Build 0)  -->
<svg version="1.1" id="Layer_1" xmlns="http://www.w3.org/2000/svg" xmlns:xlink="http://www.w3.org/1999/xlink" x="0px" y="0px"
	 viewBox="0 0 20 20" style="enable-background:new 0 0 20 20;" xml:space="preserve">
<style type="text/css">
	.st0{fill:#FC7700;}
	.st1{fill:#FFFFFF;}
</style>
<g>
	<path class="st0" d="M10,0C4.48,0,0,4.48,0,10c0,5.52,4.48,10,10,10c5.52,0,10-4.48,10-10C20,4.48,15.52,0,10,0z"/>
</g>
<g>
	<path class="st1" d="M8.86,3.9c0.6-0.43,1.68-0.43,2.29,0c0.25,0.18,0.54,0.54,0.52,1.21l-0.26,5.32
		c-0.02,0.51-0.19,0.88-0.51,1.11c-0.27,0.2-0.57,0.3-0.9,0.3c-0.33,0-0.63-0.1-0.91-0.3c-0.32-0.23-0.49-0.61-0.5-1.11L8.33,5.11
		C8.31,4.43,8.61,4.08,8.86,3.9z"/>
</g>
<g>
	<path class="st1" d="M11.25,15.92c-0.34,0.34-0.77,0.51-1.25,0.51c-0.48,0-0.92-0.18-1.25-0.51c-0.33-0.33-0.51-0.77-0.51-1.25
		c0-0.48,0.18-0.92,0.51-1.25c0.67-0.67,1.83-0.67,2.5,0c0.34,0.34,0.51,0.77,0.51,1.25C11.76,15.15,11.59,15.58,11.25,15.92z"/>
</g>
</svg>
