<?xml version="1.0" encoding="utf-8"?>
<!-- Generator: Adobe Illustrator 22.1.0, SVG Export Plug-In . SVG Version: 6.00 Build 0)  -->
<svg version="1.1" id="Layer_1" xmlns="http://www.w3.org/2000/svg" xmlns:xlink="http://www.w3.org/1999/xlink" x="0px" y="0px"
	 viewBox="0 0 180 180" style="enable-background:new 0 0 180 180;" xml:space="preserve">
<style type="text/css">
	.st0{fill:#FFFFFF;}
</style>
<path class="st0" d="M55.1,57.2l3-8.9c0.9-2.8,3.5-4.6,6.4-4.6h51.1c2.9,0,5.5,1.9,6.4,4.6l3,8.9h9c7.5,0,13.5,6,13.5,13.5v54
	c0,7.5-6.1,13.5-13.5,13.5H46.1c-7.5,0-13.5-6-13.5-13.5v-54c0-7.5,6.1-13.5,13.5-13.5H55.1z M90.1,124.6
	c16.8,0,30.4-13.6,30.4-30.4s-13.6-30.4-30.4-30.4S59.7,77.5,59.7,94.3S73.3,124.6,90.1,124.6z M90.1,113.9
	c-10.9,0-19.7-8.8-19.7-19.6s8.8-19.6,19.7-19.6s19.7,8.8,19.7,19.6S101,113.9,90.1,113.9z M126.2,76.4v8.9h8.9v-8.9H126.2z"/>
<rect x="140.6" y="23.1" class="st0" width="4" height="23.9"/>
<rect x="140.6" y="23.1" transform="matrix(4.528473e-11 -1 1 4.528473e-11 107.543 177.6786)" class="st0" width="4" height="24"/>
</svg>
